<svg xmlns="http://www.w3.org/2000/svg" viewBox="0 0 515.94 572.28"><defs><style>.cls-1{isolation:isolate;}.cls-2{fill:#ffd830;}.cls-2,.cls-3{mix-blend-mode:multiply;}.cls-3{fill:#79cb62;}.cls-4{fill:#48d1d8;}.cls-5{fill:#68d7e1;}.cls-6{fill:#80e5cf;}.cls-7{fill:#fa5533;}</style></defs><title>Logo Only SVG</title><g class="cls-1"><g id="Layer_2" data-name="Layer 2"><g id="Layer_1-2" data-name="Layer 1"><circle class="cls-2" cx="264.16" cy="199.79" r="86.35"/><polygon class="cls-3" points="138.75 333.49 238.02 211.63 275.26 241.25 358.97 141.39 511.36 333.49 138.75 333.49"/><polygon class="cls-3" points="4.58 333.49 50.79 252.68 80.36 276.21 146.86 196.89 254.85 333.03 138.75 333.49 4.58 333.49"/><path class="cls-4" d="M258,388.35c.95-.82,1.9-1.65,2.86-2.46a242.17,242.17,0,0,1,90-47.82H165.11a242.13,242.13,0,0,1,92.35,49.83Z"/><path class="cls-5" d="M266.73,392.9c-.64.54-1.26,1.09-1.9,1.64a243.8,243.8,0,0,1,42.75,53.15A165.44,165.44,0,0,1,496.65,426.6a66.61,66.61,0,0,0,10.13-35.32V338.07H417.07A232.66,232.66,0,0,0,266.73,392.9Z"/><path class="cls-6" d="M251.47,394.83A232.61,232.61,0,0,0,98.85,338.07H9.16v53.21A66.61,66.61,0,0,0,19.29,426.6,165.41,165.41,0,0,1,264,562.84a66.5,66.5,0,0,0,27.3-8.66l37.79-21.81A233.27,233.27,0,0,0,251.47,394.83Z"/><path class="cls-5" d="M98.85,415.39a155.54,155.54,0,0,0-74.14,18.68,66.85,66.85,0,0,0,17.8,15L224.62,554.18A66.64,66.64,0,0,0,254.85,563a156.23,156.23,0,0,0-156-147.65Z"/><path class="cls-7" d="M473.43,123.24,291.32,18.1a66.67,66.67,0,0,0-66.7,0L42.51,123.24A66.7,66.7,0,0,0,9.16,181V316.25l40.3-70.48,30.26,24.07L147,189.64l31,39A90.94,90.94,0,0,1,342.6,153.79l16.47-19.64L506.78,320.34V181A66.7,66.7,0,0,0,473.43,123.24Z"/><path class="cls-6" d="M312.2,455.83a241.17,241.17,0,0,1,25.36,71.66l135.87-78.44a66.67,66.67,0,0,0,17.8-15,156.34,156.34,0,0,0-179,21.76Z"/><path d="M478,115.3,295.9,10.16a75.88,75.88,0,0,0-75.86,0L37.93,115.3A75.87,75.87,0,0,0,0,181V391.28A75.87,75.87,0,0,0,37.93,457L220,562.12a75.88,75.88,0,0,0,75.86,0L478,457a75.87,75.87,0,0,0,37.93-65.7V181A75.87,75.87,0,0,0,478,115.3ZM224.62,554.18,42.51,449.05a66.85,66.85,0,0,1-17.8-15A156.26,156.26,0,0,1,254.85,563,66.64,66.64,0,0,1,224.62,554.18Zm66.7,0a66.5,66.5,0,0,1-27.3,8.66A165.44,165.44,0,0,0,19.29,426.6,66.61,66.61,0,0,1,9.16,391.28V338.07H98.85a233.6,233.6,0,0,1,230.26,194.3ZM148.4,328.91,238.72,218l37.18,29.58,83-99,143,180.27Zm202.45,9.16a242.17,242.17,0,0,0-90,47.82c-1,.81-1.91,1.64-2.86,2.46l-.51-.45a242.13,242.13,0,0,0-92.35-49.83ZM274.62,234.88l-37.29-29.65-37.09,45.53A81.77,81.77,0,0,1,308,130.77a82.19,82.19,0,0,1,28.28,30.52ZM191.88,261l-55.3,67.89H12.48l39.63-69.32,28.89,23,65.76-78.43Zm281.55,188L337.56,527.49a241.17,241.17,0,0,0-25.36-71.66,156.34,156.34,0,0,1,179-21.76A66.67,66.67,0,0,1,473.43,449.05Zm33.35-57.77a66.61,66.61,0,0,1-10.13,35.32,165.44,165.44,0,0,0-189.07,21.09,243.8,243.8,0,0,0-42.75-53.15c.64-.55,1.26-1.1,1.9-1.64a232.66,232.66,0,0,1,150.34-54.83h89.71Zm0-70.94L359.07,134.15,342.6,153.79a90.94,90.94,0,0,0-164.68,74.89l-31-39-67.23,80.2L49.46,245.77,9.16,316.25V181a66.7,66.7,0,0,1,33.35-57.76L224.62,18.1a66.67,66.67,0,0,1,66.7,0L473.43,123.24A66.7,66.7,0,0,1,506.78,181Z"/></g></g></g></svg>